{
	"asset":{
		"generator":"Khronos glTF Blender I/O v4.0.44",
		"version":"2.0"
	},
	"extensionsUsed":[
		"KHR_materials_specular",
		"KHR_materials_ior"
	],
	"scene":0,
	"scenes":[
		{
			"name":"Scene",
			"nodes":[
				0,
				1,
				2
			]
		}
	],
	"nodes":[
		{
			"mesh":0,
			"name":"SofaReversiReplica001.001",
			"scale":[
				1,
				2.6502692699432373,
				1.985715389251709
			],
			"translation":[
				-4.238455295562744,
				-0.6419225931167603,
				-0.614905595779419
			]
		},
		{
			"mesh":1,
			"name":"SofaReversiReplica001.002",
			"rotation":[
				0.0030370934400707483,
				-0.7019850015640259,
				-0.0033249184489250183,
				0.7121775150299072
			],
			"scale":[
				1.0000656843185425,
				2.7573816776275635,
				1.985715389251709
			],
			"translation":[
				-0.15532319247722626,
				-0.6204603910446167,
				-2.9183332920074463
			]
		},
		{
			"mesh":2,
			"name":"Plane",
			"rotation":[
				0,
				0,
				-1,
				0
			],
			"scale":[
				-4.5666985511779785,
				-1,
				-3.6695034503936768
			],
			"translation":[
				-0.8348982334136963,
				-0.64879310131073,
				-0.7522052526473999
			]
		}
	],
	"materials":[
		{
			"doubleSided":true,
			"name":"SofaReversiReplica001_2K",
			"normalTexture":{
				"index":0
			},
			"pbrMetallicRoughness":{
				"baseColorTexture":{
					"index":1
				},
				"metallicRoughnessTexture":{
					"index":2
				}
			}
		},
		{
			"doubleSided":true,
			"extensions":{
				"KHR_materials_specular":{
					"specularFactor":0.6000000238418579,
					"specularTexture":{
						"index":3
					}
				},
				"KHR_materials_ior":{
					"ior":1.4500000476837158
				}
			},
			"name":"RugDesignerShoreline001_2K.001",
			"normalTexture":{
				"index":4
			},
			"pbrMetallicRoughness":{
				"baseColorTexture":{
					"index":5
				},
				"metallicFactor":0,
				"metallicRoughnessTexture":{
					"index":6
				}
			}
		},
		{
			"doubleSided":true,
			"name":"Material.001",
			"pbrMetallicRoughness":{
				"baseColorFactor":[
					0.8007893562316895,
					0.5108522176742554,
					0.16653147339820862,
					1
				],
				"metallicFactor":0,
				"roughnessFactor":0.5
			}
		}
	],
	"meshes":[
		{
			"name":"SofaReversiReplica001.011",
			"primitives":[
				{
					"attributes":{
						"POSITION":0,
						"NORMAL":1,
						"TEXCOORD_0":2,
						"TEXCOORD_1":3
					},
					"indices":4,
					"material":0
				}
			]
		},
		{
			"name":"SofaReversiReplica001.001",
			"primitives":[
				{
					"attributes":{
						"POSITION":5,
						"NORMAL":6,
						"TEXCOORD_0":7,
						"TEXCOORD_1":8
					},
					"indices":4,
					"material":1
				}
			]
		},
		{
			"name":"Plane",
			"primitives":[
				{
					"attributes":{
						"POSITION":9,
						"NORMAL":10,
						"TEXCOORD_0":11
					},
					"indices":12,
					"material":2
				}
			]
		}
	],
	"textures":[
		{
			"sampler":0,
			"source":0
		},
		{
			"sampler":0,
			"source":1
		},
		{
			"sampler":0,
			"source":2
		},
		{
			"sampler":0,
			"source":3
		},
		{
			"sampler":0,
			"source":4
		},
		{
			"sampler":0,
			"source":1
		},
		{
			"sampler":0,
			"source":5
		}
	],
	"images":[
		{
			"mimeType":"image/png",
			"name":"SofaReversiReplica001_NRM_2K_METALNESS",
			"uri":"SofaReversiReplica001_NRM_2K_METALNESS.png"
		},
		{
			"mimeType":"image/jpeg",
			"name":"F",
			"uri":"F.jpg"
		},
		{
			"mimeType":"image/png",
			"name":"SofaReversiReplica001_METALNESS_2K_METALNESS-SofaReversiReplica001_ROUGHNESS_2K_METALNESS",
			"uri":"SofaReversiReplica001_METALNESS_2K_METALNESS-SofaReversiReplica001_ROUGHNESS_2K_METALNESS.png"
		},
		{
			"mimeType":"image/png",
			"name":"RugDesignerShoreline001_REFL_2K",
			"uri":"RugDesignerShoreline001_REFL_2K.png"
		},
		{
			"mimeType":"image/png",
			"name":"RugDesignerShoreline001_NRM_2K",
			"uri":"RugDesignerShoreline001_NRM_2K.png"
		},
		{
			"mimeType":"image/png",
			"name":"RugDesignerShoreline001_GLOSS_2K",
			"uri":"RugDesignerShoreline001_GLOSS_2K.png"
		}
	],
	"accessors":[
		{
			"bufferView":0,
			"componentType":5126,
			"count":123204,
			"max":[
				0.5077380537986755,
				0.8501380681991577,
				1.317834734916687
			],
			"min":[
				-0.5071921348571777,
				-5.960464477539063e-08,
				-1.3027023077011108
			],
			"type":"VEC3"
		},
		{
			"bufferView":1,
			"componentType":5126,
			"count":123204,
			"type":"VEC3"
		},
		{
			"bufferView":2,
			"componentType":5126,
			"count":123204,
			"type":"VEC2"
		},
		{
			"bufferView":3,
			"componentType":5126,
			"count":123204,
			"type":"VEC2"
		},
		{
			"bufferView":4,
			"componentType":5125,
			"count":713772,
			"type":"SCALAR"
		},
		{
			"bufferView":5,
			"componentType":5126,
			"count":123204,
			"max":[
				0.5077380537986755,
				0.8501380681991577,
				1.317834734916687
			],
			"min":[
				-0.5071921348571777,
				-5.960464477539063e-08,
				-1.3027023077011108
			],
			"type":"VEC3"
		},
		{
			"bufferView":6,
			"componentType":5126,
			"count":123204,
			"type":"VEC3"
		},
		{
			"bufferView":7,
			"componentType":5126,
			"count":123204,
			"type":"VEC2"
		},
		{
			"bufferView":8,
			"componentType":5126,
			"count":123204,
			"type":"VEC2"
		},
		{
			"bufferView":9,
			"componentType":5126,
			"count":4,
			"max":[
				1,
				0,
				1
			],
			"min":[
				-1,
				0,
				-1
			],
			"type":"VEC3"
		},
		{
			"bufferView":10,
			"componentType":5126,
			"count":4,
			"type":"VEC3"
		},
		{
			"bufferView":11,
			"componentType":5126,
			"count":4,
			"type":"VEC2"
		},
		{
			"bufferView":12,
			"componentType":5123,
			"count":6,
			"type":"SCALAR"
		}
	],
	"bufferViews":[
		{
			"buffer":0,
			"byteLength":1478448,
			"byteOffset":0,
			"target":34962
		},
		{
			"buffer":0,
			"byteLength":1478448,
			"byteOffset":1478448,
			"target":34962
		},
		{
			"buffer":0,
			"byteLength":985632,
			"byteOffset":2956896,
			"target":34962
		},
		{
			"buffer":0,
			"byteLength":985632,
			"byteOffset":3942528,
			"target":34962
		},
		{
			"buffer":0,
			"byteLength":2855088,
			"byteOffset":4928160,
			"target":34963
		},
		{
			"buffer":0,
			"byteLength":1478448,
			"byteOffset":7783248,
			"target":34962
		},
		{
			"buffer":0,
			"byteLength":1478448,
			"byteOffset":9261696,
			"target":34962
		},
		{
			"buffer":0,
			"byteLength":985632,
			"byteOffset":10740144,
			"target":34962
		},
		{
			"buffer":0,
			"byteLength":985632,
			"byteOffset":11725776,
			"target":34962
		},
		{
			"buffer":0,
			"byteLength":48,
			"byteOffset":12711408,
			"target":34962
		},
		{
			"buffer":0,
			"byteLength":48,
			"byteOffset":12711456,
			"target":34962
		},
		{
			"buffer":0,
			"byteLength":32,
			"byteOffset":12711504,
			"target":34962
		},
		{
			"buffer":0,
			"byteLength":12,
			"byteOffset":12711536,
			"target":34963
		}
	],
	"samplers":[
		{
			"magFilter":9729,
			"minFilter":9987
		}
	],
	"buffers":[
		{
			"byteLength":12711548,
			"uri":"fauteuille.bin"
		}
	]
}
