{
	"asset":{
		"generator":"Khronos glTF Blender I/O v4.0.44",
		"version":"2.0"
	},
	"scene":0,
	"scenes":[
		{
			"name":"Scene",
			"nodes":[
				0
			]
		}
	],
	"nodes":[
		{
			"mesh":0,
			"name":"Book4",
			"rotation":[
				0.0347076952457428,
				0.006082904990762472,
				-0.08782977610826492,
				0.995512068271637
			],
			"scale":[
				1.3160187005996704,
				1.9051413536071777,
				1.7767646312713623
			],
			"translation":[
				4.010149002075195,
				4.906075954437256,
				-4.039461135864258
			]
		}
	],
	"materials":[
		{
			"doubleSided":true,
			"name":"Material.004",
			"pbrMetallicRoughness":{
				"baseColorFactor":[
					0.0307222418487072,
					0.04347091168165207,
					0.8000156879425049,
					1
				],
				"metallicFactor":0,
				"roughnessFactor":0.5
			}
		}
	],
	"meshes":[
		{
			"name":"Book4.001",
			"primitives":[
				{
					"attributes":{
						"POSITION":0,
						"NORMAL":1,
						"TEXCOORD_0":2
					},
					"indices":3
				},
				{
					"attributes":{
						"POSITION":4,
						"NORMAL":5,
						"TEXCOORD_0":6
					},
					"indices":7,
					"material":0
				}
			]
		}
	],
	"accessors":[
		{
			"bufferView":0,
			"componentType":5126,
			"count":48,
			"max":[
				0.04500000178813934,
				0.30000001192092896,
				0.2199999988079071
			],
			"min":[
				0,
				0,
				0
			],
			"type":"VEC3"
		},
		{
			"bufferView":1,
			"componentType":5126,
			"count":48,
			"type":"VEC3"
		},
		{
			"bufferView":2,
			"componentType":5126,
			"count":48,
			"type":"VEC2"
		},
		{
			"bufferView":3,
			"componentType":5123,
			"count":84,
			"type":"SCALAR"
		},
		{
			"bufferView":4,
			"componentType":5126,
			"count":12,
			"max":[
				0.04384000226855278,
				0.2988400161266327,
				0.21884000301361084
			],
			"min":[
				0.0011599999852478504,
				0.0011599999852478504,
				0.0011599999852478504
			],
			"type":"VEC3"
		},
		{
			"bufferView":5,
			"componentType":5126,
			"count":12,
			"type":"VEC3"
		},
		{
			"bufferView":6,
			"componentType":5126,
			"count":12,
			"type":"VEC2"
		},
		{
			"bufferView":7,
			"componentType":5123,
			"count":18,
			"type":"SCALAR"
		}
	],
	"bufferViews":[
		{
			"buffer":0,
			"byteLength":576,
			"byteOffset":0,
			"target":34962
		},
		{
			"buffer":0,
			"byteLength":576,
			"byteOffset":576,
			"target":34962
		},
		{
			"buffer":0,
			"byteLength":384,
			"byteOffset":1152,
			"target":34962
		},
		{
			"buffer":0,
			"byteLength":168,
			"byteOffset":1536,
			"target":34963
		},
		{
			"buffer":0,
			"byteLength":144,
			"byteOffset":1704,
			"target":34962
		},
		{
			"buffer":0,
			"byteLength":144,
			"byteOffset":1848,
			"target":34962
		},
		{
			"buffer":0,
			"byteLength":96,
			"byteOffset":1992,
			"target":34962
		},
		{
			"buffer":0,
			"byteLength":36,
			"byteOffset":2088,
			"target":34963
		}
	],
	"buffers":[
		{
			"byteLength":2124,
			"uri":"Book4.bin"
		}
	]
}
