{
	"asset":{
		"generator":"Khronos glTF Blender I/O v4.0.44",
		"version":"2.0"
	},
	"scene":0,
	"scenes":[
		{
			"name":"Scene",
			"nodes":[
				0
			]
		}
	],
	"nodes":[
		{
			"mesh":0,
			"name":"Candles001_CandleMelted03_Geo_LOD0.001",
			"scale":[
				0.9062188863754272,
				3.732125997543335,
				1.9054678678512573
			],
			"translation":[
				5.4786601066589355,
				2.2664008140563965,
				-1.2132225036621094
			]
		}
	],
	"meshes":[
		{
			"name":"Candles001_CandleMelted03_Geo_LOD0",
			"primitives":[
				{
					"attributes":{
						"POSITION":0,
						"NORMAL":1,
						"TEXCOORD_0":2
					},
					"indices":3
				}
			]
		}
	],
	"accessors":[
		{
			"bufferView":0,
			"componentType":5126,
			"count":1338,
			"max":[
				0.037244006991386414,
				0.06189647689461708,
				0.03296244889497757
			],
			"min":[
				-0.037244006991386414,
				-5.052313234443773e-09,
				-0.03296244889497757
			],
			"type":"VEC3"
		},
		{
			"bufferView":1,
			"componentType":5126,
			"count":1338,
			"type":"VEC3"
		},
		{
			"bufferView":2,
			"componentType":5126,
			"count":1338,
			"type":"VEC2"
		},
		{
			"bufferView":3,
			"componentType":5123,
			"count":5508,
			"type":"SCALAR"
		}
	],
	"bufferViews":[
		{
			"buffer":0,
			"byteLength":16056,
			"byteOffset":0,
			"target":34962
		},
		{
			"buffer":0,
			"byteLength":16056,
			"byteOffset":16056,
			"target":34962
		},
		{
			"buffer":0,
			"byteLength":10704,
			"byteOffset":32112,
			"target":34962
		},
		{
			"buffer":0,
			"byteLength":11016,
			"byteOffset":42816,
			"target":34963
		}
	],
	"buffers":[
		{
			"byteLength":53832,
			"uri":"Candles001_CandleMelted03_Geo_LOD0.bin"
		}
	]
}
