{
	"asset":{
		"generator":"Khronos glTF Blender I/O v4.0.44",
		"version":"2.0"
	},
	"scene":0,
	"scenes":[
		{
			"name":"Scene",
			"nodes":[
				0
			]
		}
	],
	"nodes":[
		{
			"mesh":0,
			"name":"Candles001_CandleMelted02_Geo_LOD0.001",
			"scale":[
				0.9062188863754272,
				4.129613399505615,
				1.9054678678512573
			],
			"translation":[
				5.3988356590271,
				2.3005266189575195,
				-1.1037826538085938
			]
		}
	],
	"materials":[
		{
			"doubleSided":true,
			"name":"candle",
			"pbrMetallicRoughness":{
				"baseColorFactor":[
					0.8001017570495605,
					0.5641142129898071,
					0.32950443029403687,
					1
				],
				"metallicFactor":0,
				"roughnessFactor":0.5
			}
		}
	],
	"meshes":[
		{
			"name":"Candles001_CandleMelted02_Geo_LOD0",
			"primitives":[
				{
					"attributes":{
						"POSITION":0,
						"NORMAL":1,
						"TEXCOORD_0":2
					},
					"indices":3,
					"material":0
				}
			]
		}
	],
	"accessors":[
		{
			"bufferView":0,
			"componentType":5126,
			"count":1412,
			"max":[
				0.029093001037836075,
				0.0892610028386116,
				0.021197987720370293
			],
			"min":[
				-0.029093001037836075,
				-3.2473350675132906e-09,
				-0.021198000758886337
			],
			"type":"VEC3"
		},
		{
			"bufferView":1,
			"componentType":5126,
			"count":1412,
			"type":"VEC3"
		},
		{
			"bufferView":2,
			"componentType":5126,
			"count":1412,
			"type":"VEC2"
		},
		{
			"bufferView":3,
			"componentType":5123,
			"count":5160,
			"type":"SCALAR"
		}
	],
	"bufferViews":[
		{
			"buffer":0,
			"byteLength":16944,
			"byteOffset":0,
			"target":34962
		},
		{
			"buffer":0,
			"byteLength":16944,
			"byteOffset":16944,
			"target":34962
		},
		{
			"buffer":0,
			"byteLength":11296,
			"byteOffset":33888,
			"target":34962
		},
		{
			"buffer":0,
			"byteLength":10320,
			"byteOffset":45184,
			"target":34963
		}
	],
	"buffers":[
		{
			"byteLength":55504,
			"uri":"Candles001_CandleMelted02_Geo_LOD0.bin"
		}
	]
}
