{
	"asset":{
		"generator":"Khronos glTF Blender I/O v4.0.44",
		"version":"2.0"
	},
	"scene":0,
	"scenes":[
		{
			"name":"Scene",
			"nodes":[
				0
			]
		}
	],
	"nodes":[
		{
			"mesh":0,
			"name":"PlantOrchid001.001",
			"rotation":[
				-0.04674331471323967,
				0.8615800738334656,
				-0.03607388213276863,
				0.504176139831543
			],
			"scale":[
				13.16379451751709,
				9.882826805114746,
				6.793992042541504
			],
			"translation":[
				-4.591193199157715,
				0.08199159801006317,
				5.637452125549316
			]
		}
	],
	"materials":[
		{
			"doubleSided":true,
			"name":"Material.001",
			"pbrMetallicRoughness":{
				"baseColorFactor":[
					0.2951890230178833,
					0.0035248168278485537,
					0.08126181364059448,
					1
				],
				"metallicFactor":0,
				"roughnessFactor":0.5
			}
		}
	],
	"meshes":[
		{
			"name":"PlantOrchid001",
			"primitives":[
				{
					"attributes":{
						"COLOR_0":0,
						"POSITION":1,
						"NORMAL":2,
						"TEXCOORD_0":3
					},
					"indices":4,
					"material":0
				}
			]
		}
	],
	"accessors":[
		{
			"bufferView":0,
			"componentType":5123,
			"count":104854,
			"normalized":true,
			"type":"VEC4"
		},
		{
			"bufferView":1,
			"componentType":5126,
			"count":104854,
			"max":[
				0.09159579873085022,
				0.4267856478691101,
				0.03558005392551422
			],
			"min":[
				-0.15754005312919617,
				0.07242346554994583,
				-0.09215002506971359
			],
			"type":"VEC3"
		},
		{
			"bufferView":2,
			"componentType":5126,
			"count":104854,
			"type":"VEC3"
		},
		{
			"bufferView":3,
			"componentType":5126,
			"count":104854,
			"type":"VEC2"
		},
		{
			"bufferView":4,
			"componentType":5125,
			"count":582621,
			"type":"SCALAR"
		}
	],
	"bufferViews":[
		{
			"buffer":0,
			"byteLength":838832,
			"byteOffset":0,
			"target":34962
		},
		{
			"buffer":0,
			"byteLength":1258248,
			"byteOffset":838832,
			"target":34962
		},
		{
			"buffer":0,
			"byteLength":1258248,
			"byteOffset":2097080,
			"target":34962
		},
		{
			"buffer":0,
			"byteLength":838832,
			"byteOffset":3355328,
			"target":34962
		},
		{
			"buffer":0,
			"byteLength":2330484,
			"byteOffset":4194160,
			"target":34963
		}
	],
	"buffers":[
		{
			"byteLength":6524644,
			"uri":"PlantOrchid001.001gltf.bin"
		}
	]
}
