{
	"asset":{
		"generator":"Khronos glTF Blender I/O v4.0.44",
		"version":"2.0"
	},
	"scene":0,
	"scenes":[
		{
			"name":"Scene",
			"nodes":[
				0
			]
		}
	],
	"nodes":[
		{
			"mesh":0,
			"name":"porte",
			"rotation":[
				-0.0017118301475420594,
				0.9999434947967529,
				-0.005534647963941097,
				0.008913031779229641
			],
			"scale":[
				0.12629525363445282,
				3.0916056632995605,
				1.059518814086914
			],
			"translation":[
				-5.228275299072266,
				2.5440421104431152,
				2.9239273071289062
			]
		}
	],
	"materials":[
		{
			"doubleSided":true,
			"name":"Material.002",
			"pbrMetallicRoughness":{
				"baseColorTexture":{
					"index":0
				},
				"metallicFactor":0,
				"roughnessFactor":0
			}
		}
	],
	"meshes":[
		{
			"name":"Cube.011",
			"primitives":[
				{
					"attributes":{
						"POSITION":0,
						"NORMAL":1
					},
					"indices":2,
					"material":0
				}
			]
		}
	],
	"textures":[
		{
			"sampler":0,
			"source":0
		}
	],
	"images":[
		{
			"mimeType":"image/jpeg",
			"name":"Jan_136_1",
			"uri":"Jan_136_1.jpg"
		}
	],
	"accessors":[
		{
			"bufferView":0,
			"componentType":5126,
			"count":600,
			"max":[
				1,
				1,
				1
			],
			"min":[
				-1.5860129594802856,
				-1,
				-1
			],
			"type":"VEC3"
		},
		{
			"bufferView":1,
			"componentType":5126,
			"count":600,
			"type":"VEC3"
		},
		{
			"bufferView":2,
			"componentType":5123,
			"count":1284,
			"type":"SCALAR"
		}
	],
	"bufferViews":[
		{
			"buffer":0,
			"byteLength":7200,
			"byteOffset":0,
			"target":34962
		},
		{
			"buffer":0,
			"byteLength":7200,
			"byteOffset":7200,
			"target":34962
		},
		{
			"buffer":0,
			"byteLength":2568,
			"byteOffset":14400,
			"target":34963
		}
	],
	"samplers":[
		{
			"magFilter":9729,
			"minFilter":9987
		}
	],
	"buffers":[
		{
			"byteLength":16968,
			"uri":"porte.bin"
		}
	]
}
