{
	"asset":{
		"generator":"Khronos glTF Blender I/O v4.0.44",
		"version":"2.0"
	},
	"extensionsUsed":[
		"KHR_materials_specular",
		"KHR_materials_ior"
	],
	"scene":0,
	"scenes":[
		{
			"name":"Scene",
			"nodes":[
				0
			]
		}
	],
	"nodes":[
		{
			"mesh":0,
			"name":"SofaReversiReplica001.002",
			"rotation":[
				0.0030370934400707483,
				-0.7019850015640259,
				-0.0033249184489250183,
				0.7121775150299072
			],
			"scale":[
				1.0000656843185425,
				2.7573816776275635,
				1.985715389251709
			],
			"translation":[
				-0.49469292163848877,
				-0.27682507038116455,
				-3.2507407665252686
			]
		}
	],
	"materials":[
		{
			"doubleSided":true,
			"extensions":{
				"KHR_materials_specular":{
					"specularFactor":0.6000000238418579,
					"specularTexture":{
						"index":0
					}
				},
				"KHR_materials_ior":{
					"ior":1.4500000476837158
				}
			},
			"name":"RugDesignerShoreline001_2K.001",
			"normalTexture":{
				"index":1
			},
			"pbrMetallicRoughness":{
				"baseColorTexture":{
					"index":2
				},
				"metallicFactor":0,
				"metallicRoughnessTexture":{
					"index":3
				}
			}
		}
	],
	"meshes":[
		{
			"name":"SofaReversiReplica001.001",
			"primitives":[
				{
					"attributes":{
						"POSITION":0,
						"NORMAL":1,
						"TEXCOORD_0":2,
						"TEXCOORD_1":3
					},
					"indices":4,
					"material":0
				}
			]
		}
	],
	"textures":[
		{
			"sampler":0,
			"source":0
		},
		{
			"sampler":0,
			"source":1
		},
		{
			"sampler":0,
			"source":2
		},
		{
			"sampler":0,
			"source":3
		}
	],
	"images":[
		{
			"mimeType":"image/png",
			"name":"RugDesignerShoreline001_REFL_2K",
			"uri":"RugDesignerShoreline001_REFL_2K.png"
		},
		{
			"mimeType":"image/png",
			"name":"RugDesignerShoreline001_NRM_2K",
			"uri":"RugDesignerShoreline001_NRM_2K.png"
		},
		{
			"mimeType":"image/jpeg",
			"name":"F",
			"uri":"F.jpg"
		},
		{
			"mimeType":"image/png",
			"name":"RugDesignerShoreline001_GLOSS_2K",
			"uri":"RugDesignerShoreline001_GLOSS_2K.png"
		}
	],
	"accessors":[
		{
			"bufferView":0,
			"componentType":5126,
			"count":123204,
			"max":[
				0.5077380537986755,
				0.8501380681991577,
				1.317834734916687
			],
			"min":[
				-0.5071921348571777,
				-5.960464477539063e-08,
				-1.3027023077011108
			],
			"type":"VEC3"
		},
		{
			"bufferView":1,
			"componentType":5126,
			"count":123204,
			"type":"VEC3"
		},
		{
			"bufferView":2,
			"componentType":5126,
			"count":123204,
			"type":"VEC2"
		},
		{
			"bufferView":3,
			"componentType":5126,
			"count":123204,
			"type":"VEC2"
		},
		{
			"bufferView":4,
			"componentType":5125,
			"count":713772,
			"type":"SCALAR"
		}
	],
	"bufferViews":[
		{
			"buffer":0,
			"byteLength":1478448,
			"byteOffset":0,
			"target":34962
		},
		{
			"buffer":0,
			"byteLength":1478448,
			"byteOffset":1478448,
			"target":34962
		},
		{
			"buffer":0,
			"byteLength":985632,
			"byteOffset":2956896,
			"target":34962
		},
		{
			"buffer":0,
			"byteLength":985632,
			"byteOffset":3942528,
			"target":34962
		},
		{
			"buffer":0,
			"byteLength":2855088,
			"byteOffset":4928160,
			"target":34963
		}
	],
	"samplers":[
		{
			"magFilter":9729,
			"minFilter":9987
		}
	],
	"buffers":[
		{
			"byteLength":7783248,
			"uri":"SofaReversiReplica001.002.bin"
		}
	]
}
