{
	"asset":{
		"generator":"Khronos glTF Blender I/O v4.0.44",
		"version":"2.0"
	},
	"scene":0,
	"scenes":[
		{
			"name":"Scene",
			"nodes":[
				0
			]
		}
	],
	"nodes":[
		{
			"mesh":0,
			"name":"Book2",
			"rotation":[
				0.03395475447177887,
				0.009419114328920841,
				0.009098144248127937,
				0.9993376731872559
			],
			"scale":[
				1.2621463537216187,
				1.8729859590530396,
				1.7764016389846802
			],
			"translation":[
				4.420370101928711,
				4.89859676361084,
				-4.039461135864258
			]
		}
	],
	"materials":[
		{
			"doubleSided":true,
			"name":"Book16_material.001",
			"pbrMetallicRoughness":{}
		},
		{
			"doubleSided":true,
			"name":"Book16_side_material.001",
			"pbrMetallicRoughness":{}
		}
	],
	"meshes":[
		{
			"name":"Book16.001",
			"primitives":[
				{
					"attributes":{
						"POSITION":0,
						"NORMAL":1,
						"TEXCOORD_0":2
					},
					"indices":3,
					"material":0
				},
				{
					"attributes":{
						"POSITION":4,
						"NORMAL":5,
						"TEXCOORD_0":6
					},
					"indices":7,
					"material":1
				}
			]
		}
	],
	"accessors":[
		{
			"bufferView":0,
			"componentType":5126,
			"count":48,
			"max":[
				0.04500000178813934,
				0.30000001192092896,
				0.2199999988079071
			],
			"min":[
				0,
				0,
				0
			],
			"type":"VEC3"
		},
		{
			"bufferView":1,
			"componentType":5126,
			"count":48,
			"type":"VEC3"
		},
		{
			"bufferView":2,
			"componentType":5126,
			"count":48,
			"type":"VEC2"
		},
		{
			"bufferView":3,
			"componentType":5123,
			"count":84,
			"type":"SCALAR"
		},
		{
			"bufferView":4,
			"componentType":5126,
			"count":12,
			"max":[
				0.04455000162124634,
				0.29955002665519714,
				0.2195499986410141
			],
			"min":[
				0.00044999999227002263,
				0.00044999999227002263,
				0.00044999999227002263
			],
			"type":"VEC3"
		},
		{
			"bufferView":5,
			"componentType":5126,
			"count":12,
			"type":"VEC3"
		},
		{
			"bufferView":6,
			"componentType":5126,
			"count":12,
			"type":"VEC2"
		},
		{
			"bufferView":7,
			"componentType":5123,
			"count":18,
			"type":"SCALAR"
		}
	],
	"bufferViews":[
		{
			"buffer":0,
			"byteLength":576,
			"byteOffset":0,
			"target":34962
		},
		{
			"buffer":0,
			"byteLength":576,
			"byteOffset":576,
			"target":34962
		},
		{
			"buffer":0,
			"byteLength":384,
			"byteOffset":1152,
			"target":34962
		},
		{
			"buffer":0,
			"byteLength":168,
			"byteOffset":1536,
			"target":34963
		},
		{
			"buffer":0,
			"byteLength":144,
			"byteOffset":1704,
			"target":34962
		},
		{
			"buffer":0,
			"byteLength":144,
			"byteOffset":1848,
			"target":34962
		},
		{
			"buffer":0,
			"byteLength":96,
			"byteOffset":1992,
			"target":34962
		},
		{
			"buffer":0,
			"byteLength":36,
			"byteOffset":2088,
			"target":34963
		}
	],
	"buffers":[
		{
			"byteLength":2124,
			"uri":"Book2.bin"
		}
	]
}
