{
	"asset":{
		"generator":"Khronos glTF Blender I/O v4.0.44",
		"version":"2.0"
	},
	"scene":0,
	"scenes":[
		{
			"name":"Scene",
			"nodes":[
				0
			]
		}
	],
	"nodes":[
		{
			"mesh":0,
			"name":"Candles001_CandleMelted01_Geo_LOD0.001",
			"scale":[
				0.9062188863754272,
				1.971261739730835,
				1.9054678678512573
			],
			"translation":[
				5.439225196838379,
				2.243898391723633,
				-1.099809169769287
			]
		}
	],
	"materials":[
		{
			"doubleSided":true,
			"name":"candle",
			"pbrMetallicRoughness":{
				"baseColorFactor":[
					0.8001017570495605,
					0.5641142129898071,
					0.32950443029403687,
					1
				],
				"metallicFactor":0,
				"roughnessFactor":0.5
			}
		}
	],
	"meshes":[
		{
			"name":"Candles001_CandleMelted01_Geo_LOD0",
			"primitives":[
				{
					"attributes":{
						"POSITION":0,
						"NORMAL":1,
						"TEXCOORD_0":2
					},
					"indices":3,
					"material":0
				}
			]
		}
	],
	"accessors":[
		{
			"bufferView":0,
			"componentType":5126,
			"count":830,
			"max":[
				0.01237570121884346,
				0.13898053765296936,
				0.01578504778444767
			],
			"min":[
				-0.01237570121884346,
				1.1445591141523437e-09,
				-0.01578506827354431
			],
			"type":"VEC3"
		},
		{
			"bufferView":1,
			"componentType":5126,
			"count":830,
			"type":"VEC3"
		},
		{
			"bufferView":2,
			"componentType":5126,
			"count":830,
			"type":"VEC2"
		},
		{
			"bufferView":3,
			"componentType":5123,
			"count":4080,
			"type":"SCALAR"
		}
	],
	"bufferViews":[
		{
			"buffer":0,
			"byteLength":9960,
			"byteOffset":0,
			"target":34962
		},
		{
			"buffer":0,
			"byteLength":9960,
			"byteOffset":9960,
			"target":34962
		},
		{
			"buffer":0,
			"byteLength":6640,
			"byteOffset":19920,
			"target":34962
		},
		{
			"buffer":0,
			"byteLength":8160,
			"byteOffset":26560,
			"target":34963
		}
	],
	"buffers":[
		{
			"byteLength":34720,
			"uri":"Candles001_CandleMelted01_Geo_LOD0.bin"
		}
	]
}
