{
	"asset":{
		"generator":"Khronos glTF Blender I/O v4.0.44",
		"version":"2.0"
	},
	"scene":0,
	"scenes":[
		{
			"name":"Scene",
			"nodes":[
				0
			]
		}
	],
	"nodes":[
		{
			"mesh":0,
			"name":"Candles001_Candle01_Geo_LOD0.001",
			"scale":[
				0.9062188863754272,
				2.2201409339904785,
				1.9054678678512573
			],
			"translation":[
				5.3901777267456055,
				2.266996383666992,
				-1.0378377437591553
			]
		}
	],
	"materials":[
		{
			"doubleSided":true,
			"name":"candle",
			"pbrMetallicRoughness":{
				"baseColorFactor":[
					0.8001017570495605,
					0.5641142129898071,
					0.32950443029403687,
					1
				],
				"metallicFactor":0,
				"roughnessFactor":0.5
			}
		}
	],
	"meshes":[
		{
			"name":"Candles001_Candle01_Geo_LOD0",
			"primitives":[
				{
					"attributes":{
						"POSITION":0,
						"NORMAL":1,
						"TEXCOORD_0":2
					},
					"indices":3,
					"material":0
				}
			]
		}
	],
	"accessors":[
		{
			"bufferView":0,
			"componentType":5126,
			"count":715,
			"max":[
				0.011620283126831055,
				0.22706779837608337,
				0.010738654062151909
			],
			"min":[
				-0.011620283126831055,
				-1.9178113264128882e-10,
				-0.010738695971667767
			],
			"type":"VEC3"
		},
		{
			"bufferView":1,
			"componentType":5126,
			"count":715,
			"type":"VEC3"
		},
		{
			"bufferView":2,
			"componentType":5126,
			"count":715,
			"type":"VEC2"
		},
		{
			"bufferView":3,
			"componentType":5123,
			"count":3552,
			"type":"SCALAR"
		}
	],
	"bufferViews":[
		{
			"buffer":0,
			"byteLength":8580,
			"byteOffset":0,
			"target":34962
		},
		{
			"buffer":0,
			"byteLength":8580,
			"byteOffset":8580,
			"target":34962
		},
		{
			"buffer":0,
			"byteLength":5720,
			"byteOffset":17160,
			"target":34962
		},
		{
			"buffer":0,
			"byteLength":7104,
			"byteOffset":22880,
			"target":34963
		}
	],
	"buffers":[
		{
			"byteLength":29984,
			"uri":"Candles001_Candle01_Geo_LOD0.001.bin"
		}
	]
}
