{
	"asset":{
		"generator":"Khronos glTF Blender I/O v4.0.44",
		"version":"2.0"
	},
	"scene":0,
	"scenes":[
		{
			"name":"Scene",
			"nodes":[
				0
			]
		}
	],
	"nodes":[
		{
			"mesh":0,
			"name":"chaise5",
			"rotation":[
				-0.05392042547464371,
				0.9983543753623962,
				0.008485035039484501,
				0.01758832298219204
			],
			"scale":[
				0.612649142742157,
				0.08198010176420212,
				0.449821799993515
			],
			"translation":[
				5.804421901702881,
				1.4766346216201782,
				-2.7826008796691895
			]
		}
	],
	"materials":[
		{
			"doubleSided":true,
			"name":"Material.009",
			"pbrMetallicRoughness":{
				"baseColorTexture":{
					"index":0
				},
				"metallicFactor":0,
				"roughnessFactor":0.5
			}
		}
	],
	"meshes":[
		{
			"name":"Cube.013",
			"primitives":[
				{
					"attributes":{
						"POSITION":0,
						"NORMAL":1,
						"TEXCOORD_0":2
					},
					"indices":3,
					"material":0
				}
			]
		}
	],
	"textures":[
		{
			"sampler":0,
			"source":0
		}
	],
	"images":[
		{
			"mimeType":"image/jpeg",
			"name":"OIP",
			"uri":"OIP.jpg"
		}
	],
	"accessors":[
		{
			"bufferView":0,
			"componentType":5126,
			"count":250,
			"max":[
				1.0358463525772095,
				18.717971801757812,
				1
			],
			"min":[
				-1,
				-19.110109329223633,
				-1
			],
			"type":"VEC3"
		},
		{
			"bufferView":1,
			"componentType":5126,
			"count":250,
			"type":"VEC3"
		},
		{
			"bufferView":2,
			"componentType":5126,
			"count":250,
			"type":"VEC2"
		},
		{
			"bufferView":3,
			"componentType":5123,
			"count":504,
			"type":"SCALAR"
		}
	],
	"bufferViews":[
		{
			"buffer":0,
			"byteLength":3000,
			"byteOffset":0,
			"target":34962
		},
		{
			"buffer":0,
			"byteLength":3000,
			"byteOffset":3000,
			"target":34962
		},
		{
			"buffer":0,
			"byteLength":2000,
			"byteOffset":6000,
			"target":34962
		},
		{
			"buffer":0,
			"byteLength":1008,
			"byteOffset":8000,
			"target":34963
		}
	],
	"samplers":[
		{
			"magFilter":9729,
			"minFilter":9987
		}
	],
	"buffers":[
		{
			"byteLength":9008,
			"uri":"chaise5.bin"
		}
	]
}
