{
	"asset":{
		"generator":"Khronos glTF Blender I/O v4.0.44",
		"version":"2.0"
	},
	"scene":0,
	"scenes":[
		{
			"name":"Scene",
			"nodes":[
				0
			]
		}
	],
	"nodes":[
		{
			"mesh":0,
			"name":"salon",
			"rotation":[
				0,
				0.0033853028435260057,
				0,
				0.9999942779541016
			],
			"scale":[
				5.185294151306152,
				3.9791982173919678,
				3.9532878398895264
			],
			"translation":[
				0.0033803582191467285,
				-0.012268146499991417,
				-0.003438919084146619
			]
		}
	],
	"materials":[
		{
			"doubleSided":true,
			"name":"Material.007",
			"pbrMetallicRoughness":{
				"baseColorTexture":{
					"index":0
				},
				"metallicFactor":0,
				"roughnessFactor":0.5
			}
		},
		{
			"doubleSided":true,
			"name":"ZZ",
			"pbrMetallicRoughness":{
				"baseColorTexture":{
					"index":1
				},
				"metallicFactor":0,
				"roughnessFactor":0
			}
		}
	],
	"meshes":[
		{
			"name":"Cube.001",
			"primitives":[
				{
					"attributes":{
						"POSITION":0,
						"NORMAL":1
					},
					"indices":2,
					"material":0
				},
				{
					"attributes":{
						"POSITION":3,
						"NORMAL":4
					},
					"indices":5,
					"material":1
				}
			]
		}
	],
	"textures":[
		{
			"sampler":0,
			"source":0
		},
		{
			"sampler":0,
			"source":1
		}
	],
	"images":[
		{
			"mimeType":"image/jpeg",
			"name":"R",
			"uri":"R.jpg"
		},
		{
			"mimeType":"image/jpeg",
			"name":"Jan_136_1",
			"uri":"Jan_136_1.jpg"
		}
	],
	"accessors":[
		{
			"bufferView":0,
			"componentType":5126,
			"count":89,
			"max":[
				1.674497365951538,
				1.9331748485565186,
				1.945777416229248
			],
			"min":[
				-1.0070182085037231,
				-0.0682985782623291,
				-1.0000003576278687
			],
			"type":"VEC3"
		},
		{
			"bufferView":1,
			"componentType":5126,
			"count":89,
			"type":"VEC3"
		},
		{
			"bufferView":2,
			"componentType":5123,
			"count":210,
			"type":"SCALAR"
		},
		{
			"bufferView":3,
			"componentType":5126,
			"count":55,
			"max":[
				1.6744968891143799,
				-0.06681996583938599,
				1.9153180122375488
			],
			"min":[
				-1.0067644119262695,
				-0.0690920278429985,
				-1.0000003576278687
			],
			"type":"VEC3"
		},
		{
			"bufferView":4,
			"componentType":5126,
			"count":55,
			"type":"VEC3"
		},
		{
			"bufferView":5,
			"componentType":5123,
			"count":87,
			"type":"SCALAR"
		}
	],
	"bufferViews":[
		{
			"buffer":0,
			"byteLength":1068,
			"byteOffset":0,
			"target":34962
		},
		{
			"buffer":0,
			"byteLength":1068,
			"byteOffset":1068,
			"target":34962
		},
		{
			"buffer":0,
			"byteLength":420,
			"byteOffset":2136,
			"target":34963
		},
		{
			"buffer":0,
			"byteLength":660,
			"byteOffset":2556,
			"target":34962
		},
		{
			"buffer":0,
			"byteLength":660,
			"byteOffset":3216,
			"target":34962
		},
		{
			"buffer":0,
			"byteLength":174,
			"byteOffset":3876,
			"target":34963
		}
	],
	"samplers":[
		{
			"magFilter":9729,
			"minFilter":9987
		}
	],
	"buffers":[
		{
			"byteLength":4052,
			"uri":"salon.bin"
		}
	]
}
