{
	"asset":{
		"generator":"Khronos glTF Blender I/O v4.0.44",
		"version":"2.0"
	},
	"scene":0,
	"scenes":[
		{
			"name":"Scene",
			"nodes":[
				0
			]
		}
	],
	"nodes":[
		{
			"mesh":0,
			"name":"SofaReversiReplica001.001",
			"scale":[
				1,
				2.6502692699432373,
				1.985715389251709
			],
			"translation":[
				-4.326098442077637,
				-0.15969844162464142,
				-1.2625309228897095
			]
		}
	],
	"materials":[
		{
			"doubleSided":true,
			"name":"SofaReversiReplica001_2K",
			"normalTexture":{
				"index":0
			},
			"pbrMetallicRoughness":{
				"baseColorTexture":{
					"index":1
				},
				"metallicRoughnessTexture":{
					"index":2
				}
			}
		}
	],
	"meshes":[
		{
			"name":"SofaReversiReplica001.011",
			"primitives":[
				{
					"attributes":{
						"POSITION":0,
						"NORMAL":1,
						"TEXCOORD_0":2,
						"TEXCOORD_1":3
					},
					"indices":4,
					"material":0
				}
			]
		}
	],
	"textures":[
		{
			"sampler":0,
			"source":0
		},
		{
			"sampler":0,
			"source":1
		},
		{
			"sampler":0,
			"source":2
		}
	],
	"images":[
		{
			"mimeType":"image/png",
			"name":"SofaReversiReplica001_NRM_2K_METALNESS",
			"uri":"SofaReversiReplica001_NRM_2K_METALNESS.png"
		},
		{
			"mimeType":"image/jpeg",
			"name":"F",
			"uri":"F.jpg"
		},
		{
			"mimeType":"image/png",
			"name":"SofaReversiReplica001_METALNESS_2K_METALNESS-SofaReversiReplica001_ROUGHNESS_2K_METALNESS",
			"uri":"SofaReversiReplica001_METALNESS_2K_METALNESS-SofaReversiReplica001_ROUGHNESS_2K_METALNESS.png"
		}
	],
	"accessors":[
		{
			"bufferView":0,
			"componentType":5126,
			"count":123204,
			"max":[
				0.5077380537986755,
				0.8501380681991577,
				1.317834734916687
			],
			"min":[
				-0.5071921348571777,
				-5.960464477539063e-08,
				-1.3027023077011108
			],
			"type":"VEC3"
		},
		{
			"bufferView":1,
			"componentType":5126,
			"count":123204,
			"type":"VEC3"
		},
		{
			"bufferView":2,
			"componentType":5126,
			"count":123204,
			"type":"VEC2"
		},
		{
			"bufferView":3,
			"componentType":5126,
			"count":123204,
			"type":"VEC2"
		},
		{
			"bufferView":4,
			"componentType":5125,
			"count":713772,
			"type":"SCALAR"
		}
	],
	"bufferViews":[
		{
			"buffer":0,
			"byteLength":1478448,
			"byteOffset":0,
			"target":34962
		},
		{
			"buffer":0,
			"byteLength":1478448,
			"byteOffset":1478448,
			"target":34962
		},
		{
			"buffer":0,
			"byteLength":985632,
			"byteOffset":2956896,
			"target":34962
		},
		{
			"buffer":0,
			"byteLength":985632,
			"byteOffset":3942528,
			"target":34962
		},
		{
			"buffer":0,
			"byteLength":2855088,
			"byteOffset":4928160,
			"target":34963
		}
	],
	"samplers":[
		{
			"magFilter":9729,
			"minFilter":9987
		}
	],
	"buffers":[
		{
			"byteLength":7783248,
			"uri":"SofaReversiReplica001.001.bin"
		}
	]
}
