{
	"asset":{
		"generator":"Khronos glTF Blender I/O v4.0.44",
		"version":"2.0"
	},
	"scene":0,
	"scenes":[
		{
			"name":"Scene",
			"nodes":[
				0
			]
		}
	],
	"nodes":[
		{
			"mesh":0,
			"name":"PlantOrchidVase001.001",
			"scale":[
				4.802701950073242,
				13.455364227294922,
				4.93773078918457
			],
			"translation":[
				-4.874234199523926,
				-0.3228421211242676,
				5.554126739501953
			]
		}
	],
	"materials":[
		{
			"doubleSided":true,
			"name":"vase.001",
			"pbrMetallicRoughness":{
				"baseColorFactor":[
					0.36264508962631226,
					0.36264508962631226,
					0.36264508962631226,
					1
				],
				"metallicFactor":0,
				"roughnessFactor":0.5
			}
		}
	],
	"meshes":[
		{
			"name":"PlantOrchidVase001",
			"primitives":[
				{
					"attributes":{
						"POSITION":0,
						"NORMAL":1,
						"TEXCOORD_0":2
					},
					"indices":3,
					"material":0
				}
			]
		}
	],
	"accessors":[
		{
			"bufferView":0,
			"componentType":5126,
			"count":40047,
			"max":[
				0.05778117850422859,
				0.09125175327062607,
				0.05677324905991554
			],
			"min":[
				-0.057781219482421875,
				-0.0008551738574169576,
				-0.05878913030028343
			],
			"type":"VEC3"
		},
		{
			"bufferView":1,
			"componentType":5126,
			"count":40047,
			"type":"VEC3"
		},
		{
			"bufferView":2,
			"componentType":5126,
			"count":40047,
			"type":"VEC2"
		},
		{
			"bufferView":3,
			"componentType":5123,
			"count":209259,
			"type":"SCALAR"
		}
	],
	"bufferViews":[
		{
			"buffer":0,
			"byteLength":480564,
			"byteOffset":0,
			"target":34962
		},
		{
			"buffer":0,
			"byteLength":480564,
			"byteOffset":480564,
			"target":34962
		},
		{
			"buffer":0,
			"byteLength":320376,
			"byteOffset":961128,
			"target":34962
		},
		{
			"buffer":0,
			"byteLength":418518,
			"byteOffset":1281504,
			"target":34963
		}
	],
	"buffers":[
		{
			"byteLength":1700024,
			"uri":"PlantOrchidVase001.001.bin"
		}
	]
}
