{
	"asset":{
		"generator":"Khronos glTF Blender I/O v4.0.44",
		"version":"2.0"
	},
	"scene":0,
	"scenes":[
		{
			"name":"Scene",
			"nodes":[
				0
			]
		}
	],
	"nodes":[
		{
			"mesh":0,
			"name":"Sphere.001",
			"rotation":[
				0.07470841705799103,
				0.08257712423801422,
				0.9935856461524963,
				0.019680770114064217
			],
			"scale":[
				0.08802399784326553,
				0.13103152811527252,
				0.12517844140529633
			],
			"translation":[
				4.837985038757324,
				4.400653839111328,
				-3.8154964447021484
			]
		}
	],
	"materials":[
		{
			"doubleSided":true,
			"name":"Material.014",
			"pbrMetallicRoughness":{
				"baseColorFactor":[
					0.2883760631084442,
					0.8000626564025879,
					0.17818933725357056,
					1
				],
				"metallicFactor":0,
				"roughnessFactor":0
			}
		}
	],
	"meshes":[
		{
			"name":"Sphere.002",
			"primitives":[
				{
					"attributes":{
						"POSITION":0,
						"NORMAL":1
					},
					"indices":2,
					"material":0
				}
			]
		}
	],
	"accessors":[
		{
			"bufferView":0,
			"componentType":5126,
			"count":7907,
			"max":[
				0.996600866317749,
				0.982492983341217,
				0.9966010451316833
			],
			"min":[
				-0.9966005086898804,
				-0.9824930429458618,
				-0.9966006278991699
			],
			"type":"VEC3"
		},
		{
			"bufferView":1,
			"componentType":5126,
			"count":7907,
			"type":"VEC3"
		},
		{
			"bufferView":2,
			"componentType":5123,
			"count":11892,
			"type":"SCALAR"
		}
	],
	"bufferViews":[
		{
			"buffer":0,
			"byteLength":94884,
			"byteOffset":0,
			"target":34962
		},
		{
			"buffer":0,
			"byteLength":94884,
			"byteOffset":94884,
			"target":34962
		},
		{
			"buffer":0,
			"byteLength":23784,
			"byteOffset":189768,
			"target":34963
		}
	],
	"buffers":[
		{
			"byteLength":213552,
			"uri":"spher.001gltf.bin"
		}
	]
}
