{
	"asset":{
		"generator":"Khronos glTF Blender I/O v4.0.44",
		"version":"2.0"
	},
	"extensionsUsed":[
		"KHR_materials_emissive_strength"
	],
	"scene":0,
	"scenes":[
		{
			"name":"Scene",
			"nodes":[
				0
			]
		}
	],
	"nodes":[
		{
			"mesh":0,
			"name":"Television",
			"rotation":[
				0.5120701789855957,
				0.4876311123371124,
				-0.4876311719417572,
				0.5120701789855957
			],
			"scale":[
				1.4753164052963257,
				1.1238367557525635,
				0.7988371253013611
			],
			"translation":[
				-5.132054328918457,
				4.37786340713501,
				-0.5480785369873047
			]
		}
	],
	"materials":[
		{
			"doubleSided":true,
			"name":"TV",
			"pbrMetallicRoughness":{
				"baseColorFactor":[
					0,
					0,
					0,
					1
				],
				"metallicFactor":0,
				"roughnessFactor":0.20000000298023224
			}
		},
		{
			"doubleSided":true,
			"emissiveFactor":[
				1,
				1,
				1
			],
			"emissiveTexture":{
				"index":0
			},
			"name":"TVDisplay",
			"pbrMetallicRoughness":{
				"baseColorFactor":[
					0,
					0,
					0,
					1
				]
			}
		},
		{
			"doubleSided":true,
			"emissiveFactor":[
				1,
				0.07431789487600327,
				0
			],
			"extensions":{
				"KHR_materials_emissive_strength":{
					"emissiveStrength":5
				}
			},
			"name":"TVBacklight",
			"pbrMetallicRoughness":{
				"baseColorFactor":[
					0,
					0,
					0,
					1
				]
			}
		}
	],
	"meshes":[
		{
			"name":"Plane.006",
			"primitives":[
				{
					"attributes":{
						"POSITION":0,
						"NORMAL":1,
						"TEXCOORD_0":2
					},
					"indices":3,
					"material":0
				},
				{
					"attributes":{
						"POSITION":4,
						"NORMAL":5,
						"TEXCOORD_0":6
					},
					"indices":7,
					"material":1
				},
				{
					"attributes":{
						"POSITION":8,
						"NORMAL":9,
						"TEXCOORD_0":10
					},
					"indices":11,
					"material":2
				}
			]
		}
	],
	"textures":[
		{
			"sampler":0,
			"source":0
		}
	],
	"images":[
		{
			"mimeType":"image/jpeg",
			"name":"OIP_tv",
			"uri":"OIP_tv.jpg"
		}
	],
	"accessors":[
		{
			"bufferView":0,
			"componentType":5126,
			"count":57,
			"max":[
				1.4045870304107666,
				0.1787349283695221,
				1.2533453702926636
			],
			"min":[
				-1.1021037101745605,
				0,
				-1.2533453702926636
			],
			"type":"VEC3"
		},
		{
			"bufferView":1,
			"componentType":5126,
			"count":57,
			"type":"VEC3"
		},
		{
			"bufferView":2,
			"componentType":5126,
			"count":57,
			"type":"VEC2"
		},
		{
			"bufferView":3,
			"componentType":5123,
			"count":264,
			"type":"SCALAR"
		},
		{
			"bufferView":4,
			"componentType":5126,
			"count":4,
			"max":[
				1.3472697734832764,
				0.16378343105316162,
				1.0887764692306519
			],
			"min":[
				-1.0392080545425415,
				0.16378343105316162,
				-1.1560654640197754
			],
			"type":"VEC3"
		},
		{
			"bufferView":5,
			"componentType":5126,
			"count":4,
			"type":"VEC3"
		},
		{
			"bufferView":6,
			"componentType":5126,
			"count":4,
			"type":"VEC2"
		},
		{
			"bufferView":7,
			"componentType":5123,
			"count":6,
			"type":"SCALAR"
		},
		{
			"bufferView":8,
			"componentType":5126,
			"count":4,
			"max":[
				1,
				0,
				1
			],
			"min":[
				-1,
				0,
				-1
			],
			"type":"VEC3"
		},
		{
			"bufferView":9,
			"componentType":5126,
			"count":4,
			"type":"VEC3"
		},
		{
			"bufferView":10,
			"componentType":5126,
			"count":4,
			"type":"VEC2"
		},
		{
			"bufferView":11,
			"componentType":5123,
			"count":6,
			"type":"SCALAR"
		}
	],
	"bufferViews":[
		{
			"buffer":0,
			"byteLength":684,
			"byteOffset":0,
			"target":34962
		},
		{
			"buffer":0,
			"byteLength":684,
			"byteOffset":684,
			"target":34962
		},
		{
			"buffer":0,
			"byteLength":456,
			"byteOffset":1368,
			"target":34962
		},
		{
			"buffer":0,
			"byteLength":528,
			"byteOffset":1824,
			"target":34963
		},
		{
			"buffer":0,
			"byteLength":48,
			"byteOffset":2352,
			"target":34962
		},
		{
			"buffer":0,
			"byteLength":48,
			"byteOffset":2400,
			"target":34962
		},
		{
			"buffer":0,
			"byteLength":32,
			"byteOffset":2448,
			"target":34962
		},
		{
			"buffer":0,
			"byteLength":12,
			"byteOffset":2480,
			"target":34963
		},
		{
			"buffer":0,
			"byteLength":48,
			"byteOffset":2492,
			"target":34962
		},
		{
			"buffer":0,
			"byteLength":48,
			"byteOffset":2540,
			"target":34962
		},
		{
			"buffer":0,
			"byteLength":32,
			"byteOffset":2588,
			"target":34962
		},
		{
			"buffer":0,
			"byteLength":12,
			"byteOffset":2620,
			"target":34963
		}
	],
	"samplers":[
		{
			"magFilter":9729,
			"minFilter":9987
		}
	],
	"buffers":[
		{
			"byteLength":2632,
			"uri":"Television.bin"
		}
	]
}
